<svg width="72" height="70" viewBox="0 0 72 70" fill="none" xmlns="http://www.w3.org/2000/svg">
<path d="M70.4739 6.89179C72.0346 5.74977 72.4705 3.43445 71.4441 1.69795C70.4176 -0.0385397 68.3366 -0.523506 66.7758 0.618511L52.0539 11.3347C47.2169 10.4273 41.7612 10.005 35.9962 10.005C16.1139 10.005 0 15.0111 0 27.5263V52.5569C0 57.4534 3.85272 61.7556 10.1239 64.8687V48.8023C10.1239 46.7216 11.6285 45.0477 13.4986 45.0477C15.3687 45.0477 16.8732 46.7216 16.8732 48.8023V67.4813C21.5134 68.8736 26.8706 69.7497 32.6216 70V53.8084C32.6216 51.7277 34.1261 50.0538 35.9962 50.0538C37.8663 50.0538 39.3709 51.7277 39.3709 53.8084V70C45.1218 69.7497 50.4791 68.8736 55.1192 67.4813V48.8023C55.1192 46.7216 56.6238 45.0477 58.4939 45.0477C60.364 45.0477 61.8685 46.7216 61.8685 48.8023V64.8687C68.1397 61.7556 71.9925 57.4534 71.9925 52.5569V27.5263C71.9925 21.0966 67.746 16.6537 60.9124 13.8534L70.4598 6.89179H70.4739ZM43.2236 17.7644L34.1402 24.3819C32.5794 25.5239 32.1435 27.8392 33.17 29.5757C34.1964 31.3122 36.2774 31.7972 37.8382 30.6551L53.46 19.2663C55.527 19.7669 57.383 20.3613 59.0001 21.0653C64.4557 23.4276 65.2432 25.8681 65.2432 27.5263C65.2432 27.6515 64.8635 30.2171 58.7751 33.1425C53.3054 35.7708 45.2765 37.5385 35.9962 37.5385C26.716 37.5385 18.6871 35.7708 13.2174 33.1425C7.12894 30.2171 6.74929 27.6515 6.74929 27.5263C6.74929 25.8681 7.53671 23.4276 12.9924 21.0653C18.3637 18.75 26.4066 17.5141 35.9962 17.5141C38.5272 17.5141 40.9316 17.5923 43.2236 17.7644Z" fill="url(#paint0_linear_364_477)"/>
<defs>
<linearGradient id="paint0_linear_364_477" x1="-4.02331e-07" y1="35" x2="72" y2="35" gradientUnits="userSpaceOnUse">
<stop stop-color="#BA46C4"/>
<stop offset="1" stop-color="#802188"/>
</linearGradient>
</defs>
</svg>
