<svg width="36" height="36" viewBox="0 0 36 36" fill="none" xmlns="http://www.w3.org/2000/svg">
<path d="M35.0277 3.94529C35.7986 3.37498 36.0138 2.21873 35.5069 1.35154C34.9999 0.484355 33.9722 0.242167 33.2013 0.81248L25.9305 6.16404C23.5416 5.71092 20.8472 5.49998 17.9999 5.49998C8.1805 5.49998 0.222168 7.99998 0.222168 14.25V26.75C0.222168 29.1953 2.12495 31.3437 5.22217 32.8984V24.875C5.22217 23.8359 5.96522 23 6.88883 23C7.81245 23 8.5555 23.8359 8.5555 24.875V34.2031C10.8472 34.8984 13.493 35.3359 16.3333 35.4609V27.375C16.3333 26.3359 17.0763 25.5 17.9999 25.5C18.9236 25.5 19.6666 26.3359 19.6666 27.375V35.4609C22.5069 35.3359 25.1527 34.8984 27.4444 34.2031V24.875C27.4444 23.8359 28.1874 23 29.1111 23C30.0347 23 30.7777 23.8359 30.7777 24.875V32.8984C33.8749 31.3437 35.7777 29.1953 35.7777 26.75V14.25C35.7777 11.039 33.6805 8.82029 30.3055 7.42185L35.0208 3.94529H35.0277ZM21.5694 9.37498L17.0833 12.6797C16.3124 13.25 16.0972 14.4062 16.6041 15.2734C17.1111 16.1406 18.1388 16.3828 18.9097 15.8125L26.6249 10.125C27.6458 10.375 28.5624 10.6719 29.3611 11.0234C32.0555 12.2031 32.4444 13.4219 32.4444 14.25C32.4444 14.3125 32.2569 15.5937 29.2499 17.0547C26.5486 18.3672 22.5833 19.25 17.9999 19.25C13.4166 19.25 9.45133 18.3672 6.74995 17.0547C3.743 15.5937 3.5555 14.3125 3.5555 14.25C3.5555 13.4219 3.94439 12.2031 6.63883 11.0234C9.29161 9.86717 13.2638 9.24998 17.9999 9.24998C19.2499 9.24998 20.4374 9.28904 21.5694 9.37498Z" fill="white"/>
</svg>
