<svg width="55" height="112" viewBox="0 0 55 112" fill="none" xmlns="http://www.w3.org/2000/svg">
<g opacity="0.2">
<path d="M22.5 84.5V90.75C22.5 91.2141 22.3156 91.6592 21.9874 91.9874C21.6592 92.3156 21.2141 92.5 20.75 92.5C20.2859 92.5 19.8408 92.3156 19.5126 91.9874C19.1844 91.6592 19 91.2141 19 90.75C19 90.2859 19.1844 89.8408 19.5126 89.5126C19.8408 89.1844 20.2859 89 20.75 89C21.02 89 21.275 89.06 21.5 89.17V86.235L16.5 87.3V91.75C16.5 92.2141 16.3156 92.6592 15.9874 92.9874C15.6592 93.3156 15.2141 93.5 14.75 93.5C14.2859 93.5 13.8408 93.3156 13.5126 92.9874C13.1844 92.6592 13 92.2141 13 91.75C13 91.2859 13.1844 90.8408 13.5126 90.5126C13.8408 90.1844 14.2859 90 14.75 90C15.02 90 15.275 90.06 15.5 90.17V86L22.5 84.5Z" fill="#802188"/>
</g>
<g opacity="0.2">
<path d="M11.5 61.5V67.75C11.5 68.2141 11.3156 68.6592 10.9874 68.9874C10.6592 69.3156 10.2141 69.5 9.75 69.5C9.28587 69.5 8.84075 69.3156 8.51256 68.9874C8.18437 68.6592 8 68.2141 8 67.75C8 67.2859 8.18437 66.8408 8.51256 66.5126C8.84075 66.1844 9.28587 66 9.75 66C10.02 66 10.275 66.06 10.5 66.17V63.235L5.5 64.3V68.75C5.5 69.2141 5.31563 69.6592 4.98744 69.9874C4.65925 70.3156 4.21413 70.5 3.75 70.5C3.28587 70.5 2.84075 70.3156 2.51256 69.9874C2.18437 69.6592 2 69.2141 2 68.75C2 68.2859 2.18437 67.8408 2.51256 67.5126C2.84075 67.1844 3.28587 67 3.75 67C4.02 67 4.275 67.06 4.5 67.17V63L11.5 61.5Z" fill="#802188"/>
</g>
<g opacity="0.2">
<path d="M22.5 45.5V51.75C22.5 52.2141 22.3156 52.6592 21.9874 52.9874C21.6592 53.3156 21.2141 53.5 20.75 53.5C20.2859 53.5 19.8408 53.3156 19.5126 52.9874C19.1844 52.6592 19 52.2141 19 51.75C19 51.2859 19.1844 50.8408 19.5126 50.5126C19.8408 50.1844 20.2859 50 20.75 50C21.02 50 21.275 50.06 21.5 50.17V47.235L16.5 48.3V52.75C16.5 53.2141 16.3156 53.6592 15.9874 53.9874C15.6592 54.3156 15.2141 54.5 14.75 54.5C14.2859 54.5 13.8408 54.3156 13.5126 53.9874C13.1844 53.6592 13 53.2141 13 52.75C13 52.2859 13.1844 51.8408 13.5126 51.5126C13.8408 51.1844 14.2859 51 14.75 51C15.02 51 15.275 51.06 15.5 51.17V47L22.5 45.5Z" fill="#802188"/>
</g>
<g opacity="0.2">
<path d="M10.5 27.5V33.75C10.5 34.2141 10.3156 34.6592 9.98744 34.9874C9.65925 35.3156 9.21413 35.5 8.75 35.5C8.28587 35.5 7.84075 35.3156 7.51256 34.9874C7.18437 34.6592 7 34.2141 7 33.75C7 33.2859 7.18437 32.8408 7.51256 32.5126C7.84075 32.1844 8.28587 32 8.75 32C9.02 32 9.275 32.06 9.5 32.17V29.235L4.5 30.3V34.75C4.5 35.2141 4.31563 35.6592 3.98744 35.9874C3.65925 36.3156 3.21413 36.5 2.75 36.5C2.28587 36.5 1.84075 36.3156 1.51256 35.9874C1.18437 35.6592 1 35.2141 1 34.75C1 34.2859 1.18437 33.8408 1.51256 33.5126C1.84075 33.1844 2.28587 33 2.75 33C3.02 33 3.275 33.06 3.5 33.17V29L10.5 27.5Z" fill="#802188"/>
</g>
<g opacity="0.2">
<path d="M28.5 17.5V23.75C28.5 24.2141 28.3156 24.6592 27.9874 24.9874C27.6592 25.3156 27.2141 25.5 26.75 25.5C26.2859 25.5 25.8408 25.3156 25.5126 24.9874C25.1844 24.6592 25 24.2141 25 23.75C25 23.2859 25.1844 22.8408 25.5126 22.5126C25.8408 22.1844 26.2859 22 26.75 22C27.02 22 27.275 22.06 27.5 22.17V19.235L22.5 20.3V24.75C22.5 25.2141 22.3156 25.6592 21.9874 25.9874C21.6592 26.3156 21.2141 26.5 20.75 26.5C20.2859 26.5 19.8408 26.3156 19.5126 25.9874C19.1844 25.6592 19 25.2141 19 24.75C19 24.2859 19.1844 23.8408 19.5126 23.5126C19.8408 23.1844 20.2859 23 20.75 23C21.02 23 21.275 23.06 21.5 23.17V19L28.5 17.5Z" fill="#802188"/>
</g>
<g opacity="0.2">
<path d="M53.5 9.5V15.75C53.5 16.2141 53.3156 16.6592 52.9874 16.9874C52.6592 17.3156 52.2141 17.5 51.75 17.5C51.2859 17.5 50.8408 17.3156 50.5126 16.9874C50.1844 16.6592 50 16.2141 50 15.75C50 15.2859 50.1844 14.8408 50.5126 14.5126C50.8408 14.1844 51.2859 14 51.75 14C52.02 14 52.275 14.06 52.5 14.17V11.235L47.5 12.3V16.75C47.5 17.2141 47.3156 17.6592 46.9874 17.9874C46.6592 18.3156 46.2141 18.5 45.75 18.5C45.2859 18.5 44.8408 18.3156 44.5126 17.9874C44.1844 17.6592 44 17.2141 44 16.75C44 16.2859 44.1844 15.8408 44.5126 15.5126C44.8408 15.1844 45.2859 15 45.75 15C46.02 15 46.275 15.06 46.5 15.17V11L53.5 9.5Z" fill="#802188"/>
</g>
<g opacity="0.2">
<path d="M45.5 1.5V7.75C45.5 8.21413 45.3156 8.65925 44.9874 8.98744C44.6592 9.31563 44.2141 9.5 43.75 9.5C43.2859 9.5 42.8408 9.31563 42.5126 8.98744C42.1844 8.65925 42 8.21413 42 7.75C42 7.28587 42.1844 6.84075 42.5126 6.51256C42.8408 6.18437 43.2859 6 43.75 6C44.02 6 44.275 6.06 44.5 6.17V3.235L39.5 4.3V8.75C39.5 9.21413 39.3156 9.65925 38.9874 9.98744C38.6592 10.3156 38.2141 10.5 37.75 10.5C37.2859 10.5 36.8408 10.3156 36.5126 9.98744C36.1844 9.65925 36 9.21413 36 8.75C36 8.28587 36.1844 7.84075 36.5126 7.51256C36.8408 7.18437 37.2859 7 37.75 7C38.02 7 38.275 7.06 38.5 7.17V3L45.5 1.5Z" fill="#802188"/>
</g>
<g opacity="0.2">
<path d="M37.5 28.5V34.75C37.5 35.2141 37.3156 35.6592 36.9874 35.9874C36.6592 36.3156 36.2141 36.5 35.75 36.5C35.2859 36.5 34.8408 36.3156 34.5126 35.9874C34.1844 35.6592 34 35.2141 34 34.75C34 34.2859 34.1844 33.8408 34.5126 33.5126C34.8408 33.1844 35.2859 33 35.75 33C36.02 33 36.275 33.06 36.5 33.17V30.235L31.5 31.3V35.75C31.5 36.2141 31.3156 36.6592 30.9874 36.9874C30.6592 37.3156 30.2141 37.5 29.75 37.5C29.2859 37.5 28.8408 37.3156 28.5126 36.9874C28.1844 36.6592 28 36.2141 28 35.75C28 35.2859 28.1844 34.8408 28.5126 34.5126C28.8408 34.1844 29.2859 34 29.75 34C30.02 34 30.275 34.06 30.5 34.17V30L37.5 28.5Z" fill="#802188"/>
</g>
<g opacity="0.2">
<path d="M29.5 67.5V73.75C29.5 74.2141 29.3156 74.6592 28.9874 74.9874C28.6592 75.3156 28.2141 75.5 27.75 75.5C27.2859 75.5 26.8408 75.3156 26.5126 74.9874C26.1844 74.6592 26 74.2141 26 73.75C26 73.2859 26.1844 72.8408 26.5126 72.5126C26.8408 72.1844 27.2859 72 27.75 72C28.02 72 28.275 72.06 28.5 72.17V69.235L23.5 70.3V74.75C23.5 75.2141 23.3156 75.6592 22.9874 75.9874C22.6592 76.3156 22.2141 76.5 21.75 76.5C21.2859 76.5 20.8408 76.3156 20.5126 75.9874C20.1844 75.6592 20 75.2141 20 74.75C20 74.2859 20.1844 73.8408 20.5126 73.5126C20.8408 73.1844 21.2859 73 21.75 73C22.02 73 22.275 73.06 22.5 73.17V69L29.5 67.5Z" fill="#802188"/>
</g>
<g opacity="0.2">
<path d="M32.5 96.5V102.75C32.5 103.214 32.3156 103.659 31.9874 103.987C31.6592 104.316 31.2141 104.5 30.75 104.5C30.2859 104.5 29.8408 104.316 29.5126 103.987C29.1844 103.659 29 103.214 29 102.75C29 102.286 29.1844 101.841 29.5126 101.513C29.8408 101.184 30.2859 101 30.75 101C31.02 101 31.275 101.06 31.5 101.17V98.235L26.5 99.3V103.75C26.5 104.214 26.3156 104.659 25.9874 104.987C25.6592 105.316 25.2141 105.5 24.75 105.5C24.2859 105.5 23.8408 105.316 23.5126 104.987C23.1844 104.659 23 104.214 23 103.75C23 103.286 23.1844 102.841 23.5126 102.513C23.8408 102.184 24.2859 102 24.75 102C25.02 102 25.275 102.06 25.5 102.17V98L32.5 96.5Z" fill="#802188"/>
</g>
<g opacity="0.2">
<path d="M45.5 101.5V107.75C45.5 108.214 45.3156 108.659 44.9874 108.987C44.6592 109.316 44.2141 109.5 43.75 109.5C43.2859 109.5 42.8408 109.316 42.5126 108.987C42.1844 108.659 42 108.214 42 107.75C42 107.286 42.1844 106.841 42.5126 106.513C42.8408 106.184 43.2859 106 43.75 106C44.02 106 44.275 106.06 44.5 106.17V103.235L39.5 104.3V108.75C39.5 109.214 39.3156 109.659 38.9874 109.987C38.6592 110.316 38.2141 110.5 37.75 110.5C37.2859 110.5 36.8408 110.316 36.5126 109.987C36.1844 109.659 36 109.214 36 108.75C36 108.286 36.1844 107.841 36.5126 107.513C36.8408 107.184 37.2859 107 37.75 107C38.02 107 38.275 107.06 38.5 107.17V103L45.5 101.5Z" fill="#802188"/>
</g>
</svg>
