<svg width="38" height="38" viewBox="0 0 38 38" fill="none" xmlns="http://www.w3.org/2000/svg">
<path d="M36.0112 22.2706C37.3344 21.27 37.6787 20.4344 37.7113 20.3469C37.7369 20.2781 37.75 20.2053 37.75 20.1319V16.6656C37.75 12.9362 30.7738 10.4931 22.9881 9.86438L34.4637 3.48875C34.6351 3.39441 34.7857 3.26637 34.9063 3.11235C35.0269 2.95833 35.1151 2.7815 35.1656 2.5925C35.2172 2.40357 35.2303 2.2062 35.2042 2.01211C35.1781 1.81801 35.1134 1.63111 35.0138 1.4625L34.7294 0.978125C34.5993 0.756807 34.4137 0.573243 34.191 0.445553C33.9683 0.317862 33.7161 0.250461 33.4594 0.25C33.2537 0.25 33.0544 0.305625 32.8669 0.38875L32.8631 0.378751L32.7906 0.420625C32.7694 0.431875 32.7456 0.435625 32.725 0.448125L19 8.44313L5.27437 0.448125C5.05124 0.318168 4.7976 0.249796 4.53937 0.25C4.01813 0.25 3.53187 0.529375 3.26875 0.97875L2.985 1.46375C2.88531 1.63211 2.8205 1.81879 2.79441 2.0127C2.76832 2.20661 2.78148 2.40378 2.83312 2.5925C2.8838 2.78159 2.97214 2.9585 3.09286 3.11262C3.21358 3.26674 3.36417 3.39488 3.53562 3.48938L15.0106 9.86438C7.22563 10.4931 0.25 12.9369 0.25 16.6656V20.1319C0.25 20.2056 0.263125 20.2781 0.289375 20.3475C0.321875 20.4344 0.66625 21.2713 1.98937 22.2706V25.1706L1.57688 25.5594C0.69625 26.3869 0.25 27.2825 0.25 28.2181V31.6844C0.249978 31.7582 0.263317 31.8315 0.289375 31.9006C0.321875 31.9875 0.675625 32.8213 1.98937 33.8175V34.8612C1.98937 35.1812 2.75063 35.44 3.69063 35.44C4.0675 35.44 4.41125 35.3969 4.69313 35.3263C6.33813 36.0163 8.58313 36.6494 11.63 37.0513V37.1725C11.63 37.4912 12.3906 37.75 13.3313 37.75C14.0681 37.75 14.69 37.5894 14.9269 37.3669C16.1788 37.4456 17.5269 37.4931 19.0019 37.4931C20.4769 37.4931 21.8244 37.4456 23.0769 37.3669C23.3106 37.5894 23.9325 37.75 24.67 37.75C25.6094 37.75 26.3713 37.4912 26.3713 37.1725V37.0513C29.4181 36.6488 31.6631 36.0169 33.3088 35.3269C33.5894 35.3963 33.9338 35.44 34.3106 35.44C35.25 35.44 36.0119 35.1812 36.0119 34.8612V33.8169C37.3256 32.8206 37.6794 31.9869 37.7119 31.9006C37.7369 31.8306 37.75 31.7581 37.75 31.6844V28.2181C37.75 27.3156 37.305 26.4331 36.4275 25.5938L36.0112 25.195V22.2706ZM33.1787 1.24C33.308 1.16551 33.4613 1.14505 33.6056 1.18309C33.7498 1.22114 33.8731 1.31459 33.9487 1.44313L34.2331 1.92875C34.2706 1.99183 34.295 2.06182 34.3049 2.13453C34.3148 2.20725 34.3099 2.28121 34.2906 2.35201C34.2713 2.4228 34.238 2.48899 34.1925 2.54663C34.1471 2.60427 34.0906 2.65218 34.0262 2.6875L11.8313 15.0169C11.6906 15.2844 11.4294 15.5506 11.0806 15.7494C10.7537 15.9356 10.4125 16.0275 10.1206 16.0275C9.80937 16.0275 9.55437 15.9231 9.4325 15.7156C9.19687 15.3125 9.55125 14.675 10.2262 14.2919C10.5519 14.1062 10.8919 14.0162 11.1838 14.0162L11.245 14.0175L17.6506 10.2863L18.9994 9.5L33.1787 1.24ZM29.4881 15.0044C29.4281 14.7794 29.3119 14.5644 29.1688 14.3581C32.0238 15.0863 34.1937 16.1081 35.2562 17.2975C34.2269 19.5556 27.8406 21.8319 19 21.8319C10.1594 21.8319 3.77312 19.5556 2.74312 17.2975C3.80562 16.1081 5.97563 15.0869 8.82938 14.3581C8.68625 14.5644 8.57 14.7794 8.51 15.0044C8.39937 15.4181 8.44875 15.8356 8.65 16.1794C8.93563 16.665 9.47062 16.9419 10.1206 16.9419C10.5781 16.9419 11.0775 16.8013 11.5262 16.5456C11.8998 16.3376 12.2232 16.0503 12.4738 15.7037L16.8913 13.2506C17.5937 13.218 18.2968 13.2007 19 13.1988C19.7162 13.1988 20.4163 13.22 21.1075 13.2506L25.525 15.7037C25.7569 16.0325 26.085 16.3256 26.4725 16.5456C26.9213 16.8013 27.4206 16.9419 27.8781 16.9419C28.5281 16.9419 29.0631 16.6656 29.3475 16.1806C29.5494 15.8363 29.5987 15.4187 29.4881 15.0044ZM28.5669 15.7156C28.445 15.9231 28.1894 16.0275 27.8781 16.0275C27.5863 16.0275 27.245 15.9356 26.9187 15.7494C26.5687 15.5506 26.3075 15.2844 26.1681 15.0169L19.9387 11.5575L21.2656 10.82L26.7544 14.0169L26.815 14.0156C27.1069 14.0156 27.4469 14.1062 27.7725 14.2913C28.4469 14.675 28.8019 15.3131 28.5669 15.7156ZM3.9725 2.6875C3.90833 2.65211 3.85191 2.6042 3.8066 2.5466C3.76128 2.48901 3.72799 2.4229 3.7087 2.3522C3.68941 2.2815 3.6845 2.20764 3.69428 2.13501C3.70406 2.06238 3.72832 1.99246 3.76562 1.92938L4.05 1.44313C4.12576 1.31472 4.2491 1.22137 4.39326 1.18334C4.53742 1.14531 4.69076 1.16567 4.82 1.24L18.095 8.97375L16.7244 9.77125L3.9725 2.6875ZM15.5981 10.425L14.4331 11.1037C7.25875 11.7825 1.98937 14.0125 1.98937 16.665C1.98937 19.855 9.60563 22.4412 19.0006 22.4412C28.3944 22.4412 36.0119 19.8544 36.0119 16.665C36.0119 14.0125 30.7406 11.7819 23.5669 11.1037L22.4019 10.425C30.7969 10.9831 37.1463 13.5631 37.1463 16.665C37.1463 18.105 35.7781 19.4312 33.4738 20.4975C33.0963 20.57 32.8131 20.6906 32.6875 20.8344C29.3594 22.1725 24.4637 23.0194 19 23.0194C13.5356 23.0194 8.64062 22.1731 5.31375 20.835C5.18813 20.6912 4.905 20.5706 4.52688 20.4981C2.22313 19.4319 0.855 18.1056 0.855 16.6656C0.855 13.5637 7.20312 10.9831 15.5981 10.425ZM26.2425 23.0887C28.6006 22.7288 30.7875 22.1938 32.6094 21.5006V23.3088C32.6094 23.3394 32.6225 23.3694 32.6356 23.3987C31.1056 23.9912 29.0712 24.5312 26.3719 24.8894V23.3094C26.3712 23.2313 26.325 23.1569 26.2425 23.0887ZM22.9694 23.4675V25.2106C21.75 25.285 20.4369 25.3294 19 25.3294C17.5631 25.3294 16.2506 25.2856 15.0306 25.21V23.4675C16.3406 23.5737 17.6731 23.6287 19 23.6287C20.3269 23.6287 21.6594 23.5737 22.9694 23.4675ZM11.7575 23.0887C11.675 23.1569 11.6287 23.2313 11.6287 23.3088V24.8888C8.92937 24.5306 6.895 23.99 5.36437 23.3987C5.37965 23.3708 5.38881 23.3399 5.39125 23.3081V21.5C7.2125 22.1938 9.39937 22.7288 11.7575 23.0887ZM0.855 20.1319V18.4906C1.35125 19.2137 2.13563 19.87 3.14438 20.4538C2.47438 20.5306 1.98875 20.745 1.98875 20.9988V21.4981C1.08375 20.72 0.855 20.1319 0.855 20.1319ZM2.51813 32.1388C2.195 32.2431 1.98875 32.3875 1.98875 32.5506V33.0513C1.08375 32.2725 0.855 31.6838 0.855 31.6838V30.0437C1.23937 30.6044 1.815 31.1206 2.51813 31.5969V32.1388ZM2.51813 30.8637C1.45938 30.0575 0.855 29.1631 0.855 28.2181C0.855 27.4394 1.25688 26.6944 1.98875 26.0044V28.2181C1.98875 28.7087 2.17813 29.185 2.51813 29.6394V30.8637ZM4.78625 34.6612C4.61313 34.7344 4.23688 34.8306 3.69 34.8306C3.14313 34.8306 2.7675 34.735 2.59375 34.6612V33.625C2.95379 33.7036 3.32149 33.7418 3.69 33.7388C4.06313 33.7388 4.44375 33.7044 4.78625 33.625V34.6612ZM3.12313 32.5413V23.8512C3.30125 23.8725 3.49063 23.8869 3.69 23.8869C3.88938 23.8869 4.07875 23.8731 4.25688 23.8512V32.5413C4.25688 32.7075 4.00313 32.84 3.69 32.84C3.37688 32.84 3.12313 32.7075 3.12313 32.5413ZM4.78625 23.1075C4.61313 23.1812 4.23688 23.2769 3.69 23.2769C3.14313 23.2769 2.7675 23.1812 2.59375 23.1075V22.0713C2.95377 22.1501 3.32146 22.1884 3.69 22.1856C4.06313 22.1856 4.44375 22.1506 4.78625 22.0713V23.1075ZM11.6287 34.8612V36.4406C8.93125 36.0825 6.89437 35.5431 5.36437 34.9525C5.37965 34.9243 5.3888 34.8932 5.39125 34.8612V33.0531C7.2125 33.7469 9.39937 34.2819 11.7575 34.6419C11.675 34.71 11.6287 34.7844 11.6287 34.8612ZM12.1581 34.1006C9.50688 33.7219 7.16438 33.1319 5.31375 32.3881C5.22938 32.2919 5.06938 32.2069 4.86187 32.14V31.4225C6.65312 32.3325 9.17812 33.0594 12.1581 33.505V34.1006ZM14.4262 36.9713C14.2519 37.045 13.8769 37.1406 13.33 37.1406C12.7831 37.1406 12.4069 37.0456 12.2337 36.9713V35.9356C12.5938 36.0142 12.9615 36.0525 13.33 36.05C13.7025 36.05 14.0837 36.0144 14.4262 35.9356V36.9713ZM12.7631 34.8525V26.1619C13.1396 26.2081 13.5204 26.2081 13.8969 26.1619V34.8525C13.8969 35.0175 13.6431 35.1506 13.33 35.1506C13.0169 35.1506 12.7631 35.0175 12.7631 34.8525ZM14.4262 25.4181C14.2519 25.4919 13.8769 25.5875 13.33 25.5875C12.7831 25.5875 12.4069 25.4925 12.2337 25.4181V24.3831C12.5939 24.4612 12.9615 24.4993 13.33 24.4969C13.6985 24.4993 14.0661 24.4611 14.4262 24.3831V25.4181ZM22.9694 36.7663C21.7506 36.8406 20.4344 36.8838 19 36.8838C17.5656 36.8838 16.25 36.8406 15.0306 36.7663V35.0212C16.3406 35.1269 17.6731 35.1825 19 35.1825C20.3269 35.1825 21.6594 35.1269 22.9694 35.0212V36.7663ZM23.4981 34.3681C22.0581 34.4975 20.5556 34.5725 19 34.5725C17.4444 34.5725 15.9412 34.4975 14.5019 34.3681V33.7819C15.9369 33.9163 17.4394 33.995 19 33.995C20.5606 33.995 22.0631 33.9163 23.4981 33.7819V34.3681ZM25.7663 36.9713C25.5925 37.045 25.2169 37.1406 24.67 37.1406C24.1231 37.1406 23.7475 37.0456 23.5737 36.9713V35.9356C23.9338 36.0141 24.3015 36.0525 24.67 36.05C25.0431 36.05 25.4237 36.0144 25.7663 35.9356V36.9713ZM24.1031 34.8525V26.1619C24.4796 26.2081 24.8604 26.2081 25.2369 26.1619V34.8525C25.2369 35.0175 24.9831 35.1506 24.67 35.1506C24.3569 35.1506 24.1031 35.0175 24.1031 34.8525ZM25.7663 25.4181C25.5925 25.4919 25.2169 25.5875 24.67 25.5875C24.1231 25.5875 23.7475 25.4925 23.5737 25.4181V24.3831C23.9339 24.4611 24.3015 24.4992 24.67 24.4969C25.0431 24.4969 25.4237 24.4613 25.7663 24.3831V25.4181ZM26.3713 36.4406V34.8612C26.3713 34.7844 26.325 34.71 26.2431 34.6419C28.6006 34.2819 30.7875 33.7469 32.6094 33.0531V34.8612C32.6094 34.8925 32.6225 34.9225 32.6362 34.9525C31.1063 35.5438 29.0687 36.0825 26.3713 36.4406ZM33.1381 32.1394C32.9306 32.2062 32.7706 32.2912 32.6862 32.3875C30.835 33.1312 28.4931 33.7206 25.8419 34.1V33.5037C28.8219 33.0581 31.3469 32.3312 33.1381 31.4212V32.1394ZM35.4062 34.6612C35.2331 34.7344 34.8569 34.8306 34.31 34.8306C33.7631 34.8306 33.3869 34.735 33.2137 34.6612V33.625C33.5563 33.7044 33.9369 33.7388 34.31 33.7388C34.6831 33.7388 35.0638 33.7044 35.4062 33.625V34.6612ZM33.7431 32.5413V23.8512C33.9212 23.8725 34.1106 23.8869 34.31 23.8869C34.5094 23.8869 34.6987 23.8731 34.8769 23.8512V32.5413C34.8769 32.7075 34.6231 32.84 34.31 32.84C33.9969 32.84 33.7431 32.7075 33.7431 32.5413ZM35.4062 23.1075C35.2331 23.1812 34.8569 23.2769 34.31 23.2769C33.7631 23.2769 33.3869 23.1819 33.2137 23.1075V22.0713C33.5563 22.1506 33.9369 22.1856 34.31 22.1856C34.6831 22.1856 35.0638 22.1506 35.4062 22.0713V23.1075ZM37.145 31.6844C37.145 31.6844 36.9162 32.2731 36.0112 33.0519V32.5506C36.0112 32.3875 35.805 32.2431 35.4819 32.1388V31.5969C36.185 31.12 36.7606 30.6044 37.145 30.0437V31.6844ZM37.145 28.2181C37.145 29.1637 36.5406 30.0575 35.4819 30.8637V29.6394C35.8219 29.1844 36.0112 28.7087 36.0112 28.2181V26.0362C36.7219 26.7162 37.145 27.4513 37.145 28.2181ZM34.8556 20.4531C35.8644 19.8694 36.6488 19.2138 37.145 18.49V20.1313C37.145 20.1313 36.9162 20.7187 36.0112 21.4975V20.9981C36.0112 20.7444 35.5256 20.53 34.8556 20.4531Z" fill="#373737"/>
</svg>
