<svg width="38" height="38" viewBox="0 0 38 38" fill="none" xmlns="http://www.w3.org/2000/svg">
<path d="M36.2551 0.993286L21.1048 10.3611L22.6141 11.081L36.9948 2.18922L36.2552 0.993286H36.2551ZM4.75 4.11782L4.14469 5.38704L26.5349 16.0674L26.6434 16.2795C26.8969 16.7753 27.3995 17.258 28.028 17.5587L28.0283 17.5588L28.0286 17.559C28.6978 17.878 29.3714 17.9781 29.8747 17.9006C30.378 17.8231 30.6834 17.617 30.853 17.2616C31.0226 16.9061 30.9831 16.6061 30.7183 16.1988C30.4534 15.7916 29.9275 15.3487 29.239 15.0202C28.6091 14.72 27.9166 14.6327 27.371 14.7478L27.138 14.797L4.75 4.11782ZM14.2107 11.7467C11.0126 11.9743 8.16109 12.422 5.92289 13.0188C4.26937 13.4598 2.94945 13.987 2.09844 14.5235C1.24742 15.0602 0.953125 15.5409 0.953125 15.875C0.953125 16.2091 1.24742 16.6898 2.09844 17.2265C2.94953 17.7631 4.26937 18.2902 5.92289 18.7312C9.22992 19.6131 13.873 20.1719 19 20.1719C22.8422 20.1719 26.4125 19.8581 29.3525 19.3296C28.7179 19.3042 28.0598 19.132 27.4226 18.8279L27.4224 18.8277L27.4221 18.8276C26.6252 18.4465 25.9679 17.8604 25.5366 17.1491L19.8565 14.4398L17.0051 16.2027C16.6535 16.9566 16.0636 17.6106 15.3127 18.0759L15.3126 18.0761L15.3123 18.0763C14.4752 18.5938 13.5703 18.8631 12.7122 18.8253C11.854 18.7875 11.0095 18.3968 10.5359 17.6308C10.0623 16.8649 10.1167 15.9358 10.4957 15.1859C10.8746 14.4361 11.5348 13.7984 12.3539 13.292L12.3541 13.2919H12.3542C13.1066 12.827 13.9561 12.5909 14.7886 12.6131L15.328 12.2795L14.2107 11.7467ZM24.1663 11.7748L24.1238 11.8011L27.3503 13.3402C28.1755 13.2277 29.0458 13.3702 29.8441 13.7509H29.8445C30.7136 14.1654 31.4391 14.7277 31.8972 15.4321C32.3552 16.1363 32.51 17.0542 32.1222 17.867C31.8816 18.3715 31.4833 18.7475 31.0128 18.9916C31.3799 18.9081 31.7373 18.8218 32.0771 18.7312C33.7306 18.2902 35.0505 17.7631 35.9016 17.2265C36.7526 16.6898 37.0469 16.2091 37.0469 15.875C37.0469 15.5409 36.7526 15.0602 35.9016 14.5235C35.0505 13.987 33.7306 13.4598 32.0771 13.0188C29.9274 12.4456 27.211 12.0102 24.1663 11.7748ZM16.8374 12.9996L15.1578 14.0381L14.9209 14.0147C14.366 13.9594 13.687 14.1213 13.0935 14.488L13.0934 14.4881C12.4445 14.8893 11.9698 15.3867 11.7507 15.8202C11.5316 16.2538 11.5249 16.5563 11.7321 16.8913C11.9392 17.2263 12.2651 17.398 12.774 17.4204C13.2828 17.4428 13.9419 17.2702 14.5727 16.8801C15.1648 16.513 15.6121 15.9787 15.8103 15.4583L15.8952 15.2356L18.347 13.7197L16.8373 12.9996H16.8374ZM2.09703 18.8369L4.2018 22.3447L6.80414 20.393C6.38757 20.3003 5.97291 20.1992 5.56039 20.0899C4.20477 19.7284 3.04062 19.3143 2.09703 18.8369ZM35.9028 18.8369C34.9592 19.3142 33.795 19.7284 32.4394 20.09C31.8983 20.2342 31.3235 20.3685 30.7246 20.4943L33.7657 22.3988L35.9028 18.8369ZM37.0469 19.6634L35.6738 21.952C35.7316 21.9275 35.7891 21.9022 35.8463 21.8762C36.311 21.6637 36.6475 21.44 36.8328 21.2556C37.018 21.0711 37.0469 20.9678 37.0469 20.875V19.6634ZM0.953125 19.6636V20.875C0.953125 20.9678 0.981953 21.0711 1.16719 21.2556C1.3525 21.44 1.68898 21.6637 2.15367 21.8761C2.2093 21.9016 2.26695 21.9269 2.32609 21.952L0.953125 19.6637V19.6636ZM8.6593 20.7595L5.78922 22.912C5.93563 22.9402 6.08141 22.9683 6.2325 22.9952C7.93 23.297 9.92188 23.5259 12.0616 23.6808L9.23789 20.8571C9.04482 20.8258 8.85195 20.7933 8.6593 20.7595ZM26.9402 21.114C25.1164 21.3388 23.1431 21.488 21.0688 21.5477L23.9656 23.7203L26.9402 21.114ZM29.07 21.1175L26.1641 23.6636C28.2177 23.509 30.1301 23.2863 31.7675 22.9952C31.8465 22.9812 31.9216 22.9661 31.9993 22.9517L29.07 21.1175ZM11.5412 21.172L14.0659 23.6966L16.9313 21.5477C15.0386 21.4932 13.229 21.3648 11.5412 21.172ZM19 21.7539L16.1623 23.8822C17.1017 23.9081 18.0507 23.9219 19 23.9219C19.9492 23.9219 20.8983 23.9081 21.8377 23.8822L19 21.7539ZM0.953125 22.8376V33.375C0.953125 33.8047 1.28906 34.289 2.21016 34.8153C2.51898 34.9918 2.88437 35.1631 3.29688 35.3273V23.7758C2.65 23.5901 2.07086 23.3846 1.56898 23.1552C1.34922 23.0547 1.14398 22.9498 0.953125 22.8377V22.8376ZM37.0469 22.8376C36.856 22.9497 36.6508 23.0546 36.431 23.1552C35.9291 23.3845 35.3499 23.59 34.7031 23.7757V35.3273C35.1156 35.1631 35.481 34.9918 35.7898 34.8153C36.7109 34.289 37.0469 33.8047 37.0469 33.375V22.8376ZM4.70312 24.1273V35.8061C5.18719 35.948 5.70844 36.0813 6.26195 36.2044C8.27102 36.6508 10.6986 36.9692 13.2969 37.1575V25.1702C10.62 25.0182 8.10469 24.7563 5.98625 24.3797C5.55695 24.3039 5.12916 24.2198 4.70312 24.1273ZM33.2969 24.1273C32.8708 24.2198 32.4431 24.304 32.0137 24.3798C29.8954 24.7564 27.38 25.0184 24.7031 25.1703V37.1574C27.3014 36.9692 29.729 36.6508 31.738 36.2043C32.2916 36.0813 32.8128 35.948 33.2969 35.8061V24.1273ZM14.7031 25.2398V37.2464C16.1342 37.322 17.567 37.3596 19 37.3593C20.444 37.3593 21.8884 37.3214 23.2969 37.2464V25.2398C21.8865 25.2986 20.4438 25.3281 19 25.3281C17.5562 25.3281 16.1135 25.2986 14.7031 25.2398Z" fill="#373737"/>
</svg>
